<svg width="128" height="128" viewBox="0 0 128 128" fill="none" xmlns="http://www.w3.org/2000/svg">
  <rect width="128" height="128" rx="24" fill="#1D3557"/>
  <path d="M64 104C86.0914 104 104 86.0914 104 64C104 41.9086 86.0914 24 64 24C41.9086 24 24 41.9086 24 64C24 86.0914 41.9086 104 64 104Z" fill="#F1FAEE"/>
  <path d="M64 96C81.6731 96 96 81.6731 96 64C96 46.3269 81.6731 32 64 32C46.3269 32 32 46.3269 32 64C32 81.6731 46.3269 96 64 96Z" fill="#E63946"/>
  <path d="M64 88C77.2548 88 88 77.2548 88 64C88 50.7452 77.2548 40 64 40C50.7452 40 40 50.7452 40 64C40 77.2548 50.7452 88 64 88Z" fill="#F8C630"/>
  <path d="M64 80C72.8366 80 80 72.8366 80 64C80 55.1634 72.8366 48 64 48C55.1634 48 48 55.1634 48 64C48 72.8366 55.1634 80 64 80Z" fill="#F1FAEE"/>
  <path d="M64 72C68.4183 72 72 68.4183 72 64C72 59.5817 68.4183 56 64 56C59.5817 56 56 59.5817 56 64C56 68.4183 59.5817 72 64 72Z" fill="#1D3557"/>
  
  <!-- Guitarra -->
  <path d="M88 32L96 24M96 24L104 16M96 24L88 16M96 24L104 32" stroke="#F1FAEE" stroke-width="3" stroke-linecap="round"/>
  
  <!-- Sombrero -->
  <path d="M32 32C32 32 40 28 48 32C56 36 64 36 72 32C80 28 88 32 88 32" stroke="#F1FAEE" stroke-width="3" stroke-linecap="round"/>
  
  <!-- Texto "M" -->
  <path d="M58 68L64 60L70 68" stroke="#F1FAEE" stroke-width="3" stroke-linecap="round" stroke-linejoin="round"/>
</svg>
