<svg width="100" height="100" viewBox="0 0 100 100" xmlns="http://www.w3.org/2000/svg">
  <defs>
    <pattern id="mariachi-pattern" patternUnits="userSpaceOnUse" width="100" height="100">
      <rect width="100" height="100" fill="#F1FAEE" opacity="0.8"/>
      <path d="M25,25 L35,15 L45,25 L35,35 Z" fill="#E63946" opacity="0.1"/>
      <path d="M75,25 L85,15 L95,25 L85,35 Z" fill="#F8C630" opacity="0.1"/>
      <path d="M25,75 L35,65 L45,75 L35,85 Z" fill="#F8C630" opacity="0.1"/>
      <path d="M75,75 L85,65 L95,75 L85,85 Z" fill="#E63946" opacity="0.1"/>
      <circle cx="50" cy="50" r="8" fill="#006341" opacity="0.1"/>
      <path d="M50,30 L55,40 L45,40 Z" fill="#1D3557" opacity="0.1"/>
      <path d="M50,70 L55,60 L45,60 Z" fill="#1D3557" opacity="0.1"/>
      <path d="M30,50 L40,55 L40,45 Z" fill="#1D3557" opacity="0.1"/>
      <path d="M70,50 L60,55 L60,45 Z" fill="#1D3557" opacity="0.1"/>
    </pattern>
  </defs>
  <rect width="100" height="100" fill="url(#mariachi-pattern)" />
</svg> 